<?xml version="1.0" encoding="UTF-8"?>
<svg id="clm-logo-stroke" data-name="Layer 2" xmlns="http://www.w3.org/2000/svg" viewBox="0 0 1583.71 1728.77">
  <defs>
    <style>
      .cls-1 {
        fill: none;
        stroke: #f3ae2a;
        stroke-miterlimit: 10;
        stroke-width: .25px;
      }
    </style>
  </defs>
  <g id="Layer_2-2" data-name="Layer 2">
    <g>
      <g>
        <path class="cls-1" d="M673.33,324.58c61.14-21.66,125.88-32.94,191.05-32.94h0c151.89,0,295,59.03,403.13,166.26,.57,.55,1.14,1.1,1.7,1.66,20.23,20.23,39.29,42.45,56.65,66.04,5.14,6.98,10.06,14.08,14.85,21.24l242.82-161.88C1428.55,152.95,1164.33,.12,864.38,.12c-65.66,0-129.59,7.36-191.06,21.23V324.58Z"/>
        <path class="cls-1" d="M323.36,985.8V190.45C126.3,348.86,.12,591.87,.12,864.38c0,41.22,2.95,81.74,8.53,121.41H323.36Z"/>
        <path class="cls-1" d="M323.36,1142.84H45.98c53.41,157.02,150.77,293.7,277.38,395.48v-395.48Z"/>
        <path class="cls-1" d="M1340.77,1181.98c-.56,.84-1.08,1.7-1.64,2.53-106.96,158.18-284.43,252.62-474.75,252.62-29.14,0-58.43-2.22-87.05-6.61-35.56-5.45-70.29-14.32-104-26.3v303.19c61.47,13.87,125.4,21.23,191.06,21.23,299.95,0,564.17-152.82,719.15-384.83l-242.76-161.84Z"/>
      </g>
      <path class="cls-1" d="M864.38,426.52c-241.83,0-437.86,196.04-437.86,437.86s196.04,437.86,437.86,437.86,437.86-196.04,437.86-437.86-196.04-437.86-437.86-437.86Zm269.93,593.59l-212.82-57.1-57.1,212.83-57.1-212.83-212.83,57.1,155.73-155.73-155.73-155.73,212.83,57.1,57.1-212.83,57.1,212.83,212.82-57.1-155.73,155.73,155.73,155.73Z"/>
    </g>
  </g>
</svg>